<svg width="41" height="41" viewBox="0 0 41 41" fill="none" xmlns="http://www.w3.org/2000/svg">
<g clip-path="url(#clip0_30_841)">
<path d="M19.9515 18.4767C20.1343 13.3822 18.4098 4.65566 10.0428 3.65625C7.67834 10.7435 17.8613 10.8349 19.9515 18.4767Z" fill="#73836A"/>
<path d="M21.0423 18.4767C20.8656 13.3822 22.5902 4.65566 30.9572 3.65625C33.3216 10.7435 23.1387 10.8349 21.0423 18.4767Z" fill="#73836A"/>
<path d="M21.4933 2.56554C21.6456 2.01709 20.8291 0.127973 20.5 0C20.1648 0.121879 19.3543 2.01709 19.5067 2.56554C19.1593 2.09631 17.8918 2.24866 17.0325 2.56554C18.4578 3.95005 19.438 5.72799 19.8479 7.67226C19.8221 6.69628 19.7162 5.72408 19.531 4.76546C19.2629 3.58933 20.0307 3.3151 20.5 4.34498C20.9692 3.3151 21.7188 3.58933 21.4628 4.76546C21.281 5.72457 21.1751 6.69651 21.1459 7.67226C21.5565 5.72689 22.5391 3.94858 23.9674 2.56554C23.1082 2.24866 21.8406 2.09631 21.4933 2.56554Z" fill="#73836A"/>
<path d="M21.4994 9.54311C21.4994 9.92094 21.0485 10.2256 20.5 10.2256C19.9516 10.2256 19.5006 9.92094 19.5006 9.54311C19.5006 9.16529 19.9455 8.8606 20.5 8.8606C21.0546 8.8606 21.4994 9.16529 21.4994 9.54311Z" fill="#73836A"/>
<path d="M18.4707 21.0486C13.3823 20.8657 4.64967 22.5903 3.65027 30.9573C10.7436 33.3217 10.835 23.1388 18.4707 21.0486Z" fill="#73836A"/>
<path d="M18.4707 19.9576C13.3823 20.1343 4.64967 18.4098 3.65027 10.0428C10.7436 7.67833 10.835 17.8613 18.4707 19.9576Z" fill="#73836A"/>
<path d="M2.55946 19.5066C2.0171 19.3543 0.121879 20.1708 0 20.4999C0.115785 20.8351 2.0171 21.6456 2.55946 21.4932C2.09632 21.8406 2.24258 23.1081 2.55946 23.9674C3.94697 22.5428 5.72659 21.5629 7.67226 21.152C6.69426 21.1777 5.72001 21.2836 4.75936 21.4689C3.58323 21.737 3.3151 20.9692 4.33888 20.4999C3.3151 20.0307 3.58323 19.2811 4.75936 19.5371C5.72051 19.719 6.69448 19.825 7.67226 19.854C5.72549 19.4424 3.9455 18.4601 2.55946 17.0325C2.24258 17.8917 2.07804 19.1593 2.55946 19.5066Z" fill="#73836A"/>
<path d="M9.53701 19.5005C9.91483 19.5005 10.2195 19.9514 10.2195 20.4999C10.2195 21.0483 9.91483 21.4993 9.53701 21.4993C9.15919 21.4993 8.85449 21.0544 8.85449 20.4999C8.85449 19.9453 9.16528 19.5005 9.53701 19.5005Z" fill="#73836A"/>
<path d="M21.0423 22.5293C20.8656 27.6177 22.5902 36.3503 30.9572 37.3498C33.3216 30.2564 23.1387 30.165 21.0423 22.5293Z" fill="#73836A"/>
<path d="M19.9515 22.5293C20.1343 27.6177 18.4098 36.3503 10.0428 37.3498C7.67834 30.2564 17.8613 30.165 19.9515 22.5293Z" fill="#73836A"/>
<path d="M19.5067 38.4404C19.3543 38.9828 20.1648 40.878 20.5 40.9999C20.8291 40.8841 21.6456 38.9828 21.4933 38.4404C21.8406 38.9036 23.1082 38.7573 23.9674 38.4404C22.5398 37.0544 21.5575 35.2744 21.1459 33.3276C21.175 34.3054 21.2809 35.2794 21.4628 36.2405C21.737 37.4167 20.9692 37.6848 20.5 36.661C20.0307 37.6848 19.2812 37.4167 19.531 36.2405C19.7163 35.2799 19.8223 34.3056 19.8479 33.3276C19.437 35.2733 18.4571 37.0529 17.0325 38.4404C17.9222 38.7573 19.141 38.9036 19.5067 38.4404Z" fill="#73836A"/>
<path d="M19.5006 31.4631C19.5006 31.0852 19.9455 30.7805 20.5 30.7805C21.0546 30.7805 21.4994 31.0852 21.4994 31.4631C21.4994 31.8409 21.0485 32.1456 20.5 32.1456C19.9516 32.1456 19.5006 31.8348 19.5006 31.4631Z" fill="#73836A"/>
<path d="M22.5232 19.9576C27.6177 20.1343 36.3442 18.4098 37.3436 10.0428C30.2564 7.67833 30.165 17.8613 22.5232 19.9576Z" fill="#73836A"/>
<path d="M22.5232 21.0486C27.6177 20.8657 36.3442 22.5903 37.3436 30.9573C30.2564 33.3217 30.165 23.1388 22.5232 21.0486Z" fill="#73836A"/>
<path d="M38.4345 21.4932C38.9829 21.6456 40.872 20.8351 41 20.4999C40.8781 20.1708 38.9829 19.3543 38.4345 19.5066C38.9037 19.1593 38.7514 17.8917 38.4345 17.0325C37.0514 18.4609 35.2731 19.4434 33.3278 19.854C34.3035 19.8248 35.2754 19.7189 36.2346 19.5371C37.4107 19.2629 37.6849 20.0307 36.655 20.4999C37.6849 20.9692 37.4107 21.7187 36.2346 21.4689C35.2759 21.2837 34.3037 21.1778 33.3278 21.152C35.272 21.5619 37.05 22.5421 38.4345 23.9674C38.7514 23.0959 38.9037 21.8406 38.4345 21.4932Z" fill="#73836A"/>
<path d="M31.4569 21.4993C31.079 21.4993 30.7744 21.0544 30.7744 20.4999C30.7744 19.9453 31.079 19.5005 31.4569 19.5005C31.8347 19.5005 32.1394 19.9514 32.1394 20.4999C32.1394 21.0483 31.8347 21.4993 31.4569 21.4993Z" fill="#73836A"/>
<path d="M20.5 22.255C21.4693 22.255 22.255 21.4692 22.255 20.4999C22.255 19.5306 21.4693 18.7449 20.5 18.7449C19.5307 18.7449 18.7449 19.5306 18.7449 20.4999C18.7449 21.4692 19.5307 22.255 20.5 22.255Z" fill="#73836A"/>
</g>
<defs>
<clipPath id="clip0_30_841">
<rect width="41" height="41" fill="white"/>
</clipPath>
</defs>
</svg>
