<!DOCTYPE svg PUBLIC "-//W3C//DTD SVG 1.1//EN" "http://www.w3.org/Graphics/SVG/1.1/DTD/svg11.dtd">
<!-- Uploaded to: SVG Repo, www.svgrepo.com, Transformed by: SVG Repo Mixer Tools -->
<svg height="800px" width="800px" version="1.1" id="Layer_1" xmlns="http://www.w3.org/2000/svg" xmlns:xlink="http://www.w3.org/1999/xlink" viewBox="0 0 512 512" xml:space="preserve" fill="#445050">
<g id="SVGRepo_bgCarrier" stroke-width="0"/>
<g id="SVGRepo_tracerCarrier" stroke-linecap="round" stroke-linejoin="round"/>
<g id="SVGRepo_iconCarrier"> <g> <circle style="fill:#73836A;" cx="254.437" cy="255.997" r="176.556"/> <path style="fill:#73836A;" d="M467.995,79.439V272.66c20.08,0,36.356-16.277,36.356-36.356V115.796 C504.352,95.716,488.075,79.439,467.995,79.439z"/> </g> <g> <path style="fill:#445050;" d="M254.437,71.791C152.864,71.791,70.228,154.427,70.228,256s82.636,184.209,184.209,184.209 S438.646,357.573,438.646,256S356.01,71.791,254.437,71.791z M254.437,424.912c-93.138,0-168.912-75.774-168.912-168.912 S161.299,87.088,254.437,87.088S423.349,162.862,423.349,256S347.576,424.912,254.437,424.912z"/> <path style="fill:#445050;" d="M254.437,126.11c-71.622,0-129.891,58.269-129.891,129.891c0,39.816,17.948,76.904,49.241,101.755 l9.513-11.978c-27.618-21.933-43.457-54.655-43.457-89.777c0-63.187,51.406-114.594,114.594-114.594 s114.594,51.406,114.594,114.594s-51.407,114.593-114.594,114.593c-20.435,0-40.507-5.47-58.045-15.819l-7.774,13.175 c19.892,11.738,42.653,17.941,65.819,17.941c71.622,0,129.891-58.269,129.891-129.891S326.058,126.11,254.437,126.11z"/> <path style="fill:#445050;" d="M75.637,142.575V79.439H60.34v63.136c0,11.323-5.435,18.969-14.873,21.549V79.439H30.17v84.684 c-9.437-2.58-14.874-10.226-14.874-21.548V79.439H0v63.136c0,19.963,11.841,34.137,30.169,37.195v245.32h15.297V179.77 C63.796,176.713,75.637,162.538,75.637,142.575z"/> <path style="fill:#445050;" d="M467.995,71.791h-7.648v7.648v200.869v144.78h15.297V279.629 C496.273,275.998,512,257.958,512,236.304V115.796C512,91.531,492.26,71.791,467.995,71.791z M496.703,236.304 c0,13.183-8.93,24.318-21.06,27.674V88.122c12.129,3.356,21.06,14.491,21.06,27.674V236.304z"/> </g> </g>
</svg>