<svg width="42" height="42" viewBox="0 0 42 42" fill="none" xmlns="http://www.w3.org/2000/svg">
<g clip-path="url(#clip0_30_859)">
<path d="M21.4762 14.9908C21.4762 14.9908 22.8955 6.94445 27.0066 4.99151C25.2472 4.16459 24.1153 4.19391 23.0655 4.99151C23.3646 3.2321 21.4762 0.88623 21.4762 0.88623C21.4762 0.88623 19.5936 3.2321 19.8927 4.99151C18.843 4.19391 17.7111 4.16459 15.9458 4.99151C20.0569 6.94445 21.4762 14.9908 21.4762 14.9908Z" fill="#73836A"/>
<path d="M22.9717 13.243C22.9717 13.243 29.3173 9.53652 27.9625 6.4165C26.4201 6.4165 23.9276 9.75936 22.9717 13.243Z" fill="#73836A"/>
<path d="M19.9866 13.243C19.0306 9.75936 16.5381 6.4165 14.9957 6.4165C13.641 9.53652 19.9866 13.243 19.9866 13.243Z" fill="#73836A"/>
<path d="M5.06683 15.8704C4.24577 17.6298 4.27509 18.7675 5.06683 19.8173C3.30742 19.5182 0.961548 21.4008 0.961548 21.4008C0.961548 21.4008 3.30742 23.2892 5.06683 22.9901C4.27509 24.034 4.24577 25.1718 5.06683 26.9312C7.01976 22.8259 15.072 21.4008 15.072 21.4008C15.072 21.4008 7.01976 19.9815 5.06683 15.8704Z" fill="#73836A"/>
<path d="M13.3184 19.9112C13.3184 19.9112 9.61195 13.5597 6.4978 14.9203C6.4978 16.4627 9.83481 18.9552 13.3184 19.9112Z" fill="#73836A"/>
<path d="M13.3184 22.8965C9.83481 23.8466 6.4978 26.3449 6.4978 27.8873C9.61195 29.2421 13.3184 22.8965 13.3184 22.8965Z" fill="#73836A"/>
<path d="M21.4762 27.811C21.4762 27.811 20.0569 35.8632 15.9458 37.8162C17.7052 38.6372 18.843 38.6079 19.8927 37.8162C19.5936 39.5756 21.4762 41.9215 21.4762 41.9215C21.4762 41.9215 23.3646 39.5756 23.0655 37.8162C24.1153 38.6079 25.2472 38.6372 27.0066 37.8162C22.8955 35.8632 21.4762 27.811 21.4762 27.811Z" fill="#73836A"/>
<path d="M19.9866 29.5586C19.9866 29.5586 13.641 33.2827 14.9781 36.3851C16.5381 36.3851 19.0306 33.0481 19.9866 29.5586Z" fill="#73836A"/>
<path d="M22.9717 29.5586C23.9276 33.0774 26.4201 36.3851 27.9625 36.3851C29.3173 33.2827 22.9717 29.5586 22.9717 29.5586Z" fill="#73836A"/>
<path d="M41.9556 21.4008C41.9556 21.4008 39.6098 19.5182 37.8504 19.8173C38.6421 18.7675 38.6714 17.6298 37.8504 15.8704C35.8974 19.9756 27.8452 21.4008 27.8452 21.4008C27.8452 21.4008 35.8974 22.82 37.8504 26.9312C38.6714 25.1718 38.6421 24.034 37.8504 22.9901C39.6098 23.3127 41.9556 21.4008 41.9556 21.4008Z" fill="#73836A"/>
<path d="M29.6398 22.8965C29.6398 22.8965 33.3404 29.2421 36.4605 27.8873C36.4605 26.3449 33.1235 23.8466 29.6398 22.8965Z" fill="#73836A"/>
<path d="M29.6398 19.9112C33.1235 18.9552 36.4605 16.4627 36.4605 14.9203C33.3404 13.5597 29.6398 19.9112 29.6398 19.9112Z" fill="#73836A"/>
<path d="M24.2267 17.6767L22.9717 20.0695L25.3645 18.8144C28.1375 17.355 30.4032 15.0894 31.8625 12.3164L33.1176 9.92358L30.7248 11.1786C27.9493 12.6347 25.6828 14.9012 24.2267 17.6767Z" fill="#73836A"/>
<path d="M17.5937 18.8144L19.9865 20.0695L18.7315 17.6767C17.2754 14.9012 15.0089 12.6347 12.2334 11.1786L9.84064 9.92358L11.0957 12.3164C12.5533 15.0908 14.8194 17.3568 17.5937 18.8144Z" fill="#73836A"/>
<path d="M18.8899 25.2893L20.1449 22.8965L17.7521 24.1515C14.9782 25.6069 12.712 27.8711 11.2541 30.6437L9.99902 33.0424L12.3918 31.7815C15.1671 30.3279 17.4338 28.0633 18.8899 25.2893Z" fill="#73836A"/>
<path d="M25.3645 23.9931L22.9717 22.7263L24.2267 25.1191C25.6828 27.8931 27.9495 30.1577 30.7248 31.6113L33.1176 32.8664L31.8625 30.4736C30.4027 27.7052 28.1367 25.4454 25.3645 23.9931Z" fill="#73836A"/>
<path d="M21.4762 16.0464C21.2512 16.0464 21.0312 16.1131 20.8441 16.2381C20.657 16.3632 20.5112 16.5408 20.425 16.7487C20.3389 16.9566 20.3164 17.1854 20.3603 17.4061C20.4042 17.6268 20.5126 17.8295 20.6717 17.9887C20.8308 18.1478 21.0335 18.2561 21.2542 18.3C21.4749 18.3439 21.7037 18.3214 21.9116 18.2353C22.1195 18.1492 22.2972 18.0033 22.4222 17.8162C22.5472 17.6291 22.6139 17.4092 22.6139 17.1841C22.6139 16.8824 22.4941 16.593 22.2807 16.3796C22.0673 16.1663 21.7779 16.0464 21.4762 16.0464Z" fill="#73836A"/>
<path d="M17.2595 22.5387C17.8879 22.5387 18.3973 22.0293 18.3973 21.4009C18.3973 20.7726 17.8879 20.2632 17.2595 20.2632C16.6312 20.2632 16.1218 20.7726 16.1218 21.4009C16.1218 22.0293 16.6312 22.5387 17.2595 22.5387Z" fill="#73836A"/>
<path d="M21.4762 24.4856C21.2512 24.4856 21.0312 24.5523 20.8441 24.6773C20.657 24.8024 20.5112 24.9801 20.425 25.188C20.3389 25.3958 20.3164 25.6246 20.3603 25.8453C20.4042 26.066 20.5126 26.2687 20.6717 26.4279C20.8308 26.587 21.0335 26.6953 21.2542 26.7392C21.4749 26.7831 21.7037 26.7606 21.9116 26.6745C22.1195 26.5884 22.2972 26.4425 22.4222 26.2554C22.5472 26.0683 22.6139 25.8484 22.6139 25.6233C22.6139 25.3216 22.4941 25.0322 22.2807 24.8188C22.0673 24.6055 21.7779 24.4856 21.4762 24.4856Z" fill="#73836A"/>
<path d="M24.561 21.4009C24.561 21.626 24.6278 21.8459 24.7528 22.033C24.8778 22.2201 25.0555 22.366 25.2634 22.4521C25.4713 22.5382 25.7 22.5607 25.9208 22.5168C26.1415 22.4729 26.3442 22.3646 26.5033 22.2054C26.6624 22.0463 26.7708 21.8436 26.8147 21.6229C26.8586 21.4022 26.836 21.1734 26.7499 20.9655C26.6638 20.7576 26.518 20.58 26.3309 20.4549C26.1438 20.3299 25.9238 20.2632 25.6988 20.2632C25.397 20.2632 25.1076 20.3831 24.8943 20.5964C24.6809 20.8098 24.561 21.0992 24.561 21.4009Z" fill="#73836A"/>
</g>
<defs>
<clipPath id="clip0_30_859">
<rect width="41" height="41" fill="white" transform="translate(0.979126 0.903809)"/>
</clipPath>
</defs>
</svg>
