<!DOCTYPE svg PUBLIC "-//W3C//DTD SVG 1.1//EN" "http://www.w3.org/Graphics/SVG/1.1/DTD/svg11.dtd">
<!-- Uploaded to: SVG Repo, www.svgrepo.com, Transformed by: SVG Repo Mixer Tools -->
<svg height="800px" width="800px" version="1.1" id="Layer_1" xmlns="http://www.w3.org/2000/svg" xmlns:xlink="http://www.w3.org/1999/xlink" viewBox="0 0 512.001 512.001" xml:space="preserve" fill="#000000">
<g id="SVGRepo_bgCarrier" stroke-width="0"/>
<g id="SVGRepo_tracerCarrier" stroke-linecap="round" stroke-linejoin="round"/>
<g id="SVGRepo_iconCarrier"> <path style="fill:#8A9A8C;" d="M214.588,146.753c-3.768-30.613-29.849-54.32-61.48-54.32c-31.633,0-57.713,23.707-61.482,54.32 H214.588z"/> <path style="opacity:0.1;enable-background:new ;" d="M170.04,94.778c-5.382-1.526-11.06-2.346-16.934-2.346 c-31.633,0-57.713,23.707-61.482,54.32h33.867C128.562,121.824,146.429,101.475,170.04,94.778z"/> <g> <path style="fill:#73836A;" d="M94.263,66.564c-16.095-4.403-18.933-7.215-23.375-23.163c-0.56-2.008-2.402-3.398-4.506-3.398 c-2.105,0-3.946,1.39-4.506,3.398c-4.442,15.948-7.284,18.76-23.373,23.163c-2.027,0.555-3.434,2.379-3.434,4.464 c0,2.081,1.406,3.907,3.434,4.463c16.088,4.402,18.93,7.216,23.373,23.163c0.56,2.007,2.4,3.399,4.506,3.399 c2.103,0,3.946-1.392,4.506-3.399c4.442-15.947,7.28-18.761,23.375-23.163c2.025-0.556,3.425-2.381,3.425-4.463 C97.689,68.943,96.288,67.119,94.263,66.564z"/> <path style="fill:#73836A;" d="M292.46,125.893c-12.943-3.542-15.227-5.804-18.803-18.631c-0.448-1.616-1.933-2.731-3.621-2.731 c-1.693,0-3.174,1.115-3.623,2.731c-3.573,12.826-5.859,15.088-18.8,18.631c-1.629,0.445-2.761,1.914-2.761,3.59 c0,1.676,1.131,3.143,2.761,3.591c12.941,3.539,15.227,5.804,18.8,18.629c0.448,1.615,1.931,2.732,3.623,2.732 c1.689,0,3.172-1.117,3.621-2.732c3.575-12.825,5.86-15.09,18.803-18.629c1.627-0.448,2.755-1.915,2.755-3.591 S294.087,126.339,292.46,125.893z"/> </g> <path style="fill:#445050;" d="M150.472,194.216c49.139,0,92.861,19.746,120.863,50.436l8.047-11.907l-63.168-93.471H89.876 l-63.168,93.471l5.896,8.725C60.676,212.605,103.055,194.216,150.472,194.216z"/> <g style="opacity:0.1;"> <path d="M123.623,139.274H89.876l-63.168,93.471l5.896,8.725c11.835-12.168,26.219-22.465,42.444-30.318L123.623,139.274z"/> </g> <path style="fill:#73836A;" d="M153.044,166.551C68.52,166.551,0,234.927,0,319.273c0,84.348,68.52,152.724,153.044,152.724 s153.044-68.376,153.044-152.724C306.088,234.927,237.568,166.551,153.044,166.551z M153.044,436.705 c-64.889,0-117.676-52.68-117.676-117.432c0-64.748,52.787-117.431,117.676-117.431c64.886,0,117.673,52.683,117.673,117.431 C270.717,384.024,217.93,436.705,153.044,436.705z"/> <path style="fill:#8A9A8C;" d="M358.958,166.551c-84.524,0-153.046,68.376-153.046,152.721c0,32.046,9.898,61.78,26.798,86.34 c9.254-8.512,17.129-18.485,23.279-29.544c-9.365-16.842-14.709-36.206-14.709-56.794c0-64.748,52.789-117.431,117.677-117.431 c64.885,0,117.674,52.683,117.674,117.431c0,64.752-52.789,117.432-117.674,117.432c-30.708,0-58.703-11.804-79.679-31.097 c-6.718,9.764-14.539,18.707-23.291,26.654c27.186,24.686,63.318,39.735,102.971,39.735c84.525,0,153.042-68.376,153.042-152.724 C512,234.927,443.482,166.551,358.958,166.551z"/> <g style="opacity:0.1;"> <path d="M22.131,319.273c0-80.632,62.621-146.662,141.979-152.321c-3.656-0.26-7.344-0.4-11.065-0.4 C68.52,166.551,0,234.927,0,319.273c0,84.348,68.52,152.724,153.044,152.724c3.721,0,7.409-0.14,11.065-0.4 C84.752,465.937,22.131,399.906,22.131,319.273z"/> </g> </g>
</svg>