<svg width="122" height="9" viewBox="0 0 122 9" fill="none" xmlns="http://www.w3.org/2000/svg">
<g clip-path="url(#clip0_30_886)">
<path d="M89.94 0.913765C88.78 0.0737657 88.12 0.91377 87.47 1.79377C86.7781 2.7396 85.921 3.55266 84.94 4.19377L37.05 4.19377C36.0711 3.55011 35.2144 2.73745 34.52 1.79377C33.88 0.893773 33.22 0.0737681 32.06 0.913768C32.2265 1.73273 32.6347 2.48299 33.2319 3.06766C33.829 3.65233 34.5877 4.04459 35.41 4.19377L16.23 4.19377L16.23 3.63377C16.23 3.43486 16.151 3.2441 16.0103 3.10344C15.8697 2.96279 15.6789 2.88377 15.48 2.88377C15.2811 2.88377 15.0903 2.96279 14.9497 3.10344C14.809 3.2441 14.73 3.43486 14.73 3.63377L14.73 4.19378L4.28001 4.19378C3.91001 3.75378 4.28001 3.31377 5.28001 3.54377C6.30585 3.73905 7.34604 3.84943 8.39001 3.87378C6.3121 3.43919 4.41105 2.39466 2.93001 0.873776C2.60001 1.79378 2.44001 3.14378 2.93001 3.51378C1.92655 3.55792 0.966222 3.93431 0.200012 4.58378C0.969478 5.22637 1.92852 5.59874 2.93001 5.64377C2.44001 6.01377 2.60001 7.36377 2.93001 8.28377C4.41105 6.76289 6.3121 5.71835 8.39001 5.28377C7.34593 5.31384 6.30593 5.42754 5.28001 5.62378C4.28001 5.84378 3.93001 5.40377 4.28001 4.96377L14.72 4.96377L14.72 5.52377C14.72 5.72268 14.799 5.91345 14.9397 6.0541C15.0803 6.19476 15.2711 6.27377 15.47 6.27377C15.6689 6.27377 15.8597 6.19476 16.0003 6.0541C16.141 5.91345 16.22 5.72268 16.22 5.52377L16.22 4.96377L35.42 4.96377C34.5959 5.11114 33.835 5.50259 33.2359 6.0874C32.6369 6.67221 32.2272 7.42344 32.06 8.24377C33.22 9.08377 33.88 8.24377 34.52 7.36377C35.2144 6.42009 36.0711 5.60743 37.05 4.96377L84.94 4.96377C85.921 5.60488 86.7781 6.41794 87.47 7.36377C88.12 8.27377 88.78 9.08377 89.94 8.24377C89.7703 7.42458 89.3598 6.67474 88.7612 6.09036C88.1626 5.50598 87.4031 5.11369 86.58 4.96377L105.78 4.96377L105.78 5.52377C105.768 5.62885 105.778 5.73532 105.81 5.8362C105.842 5.93707 105.895 6.03006 105.965 6.10905C106.035 6.18805 106.122 6.25127 106.218 6.29456C106.315 6.33784 106.419 6.36023 106.525 6.36023C106.631 6.36023 106.735 6.33784 106.832 6.29456C106.928 6.25127 107.015 6.18805 107.085 6.10905C107.155 6.03006 107.208 5.93707 107.24 5.8362C107.272 5.73532 107.282 5.62885 107.27 5.52377L107.27 4.96377L117.71 4.96377C118.09 5.40377 117.71 5.84377 116.71 5.62377C115.688 5.42726 114.651 5.31355 113.61 5.28377C115.684 5.72021 117.582 6.76461 119.06 8.28377C119.4 7.36377 119.56 6.01377 119.06 5.64377C120.064 5.5987 121.027 5.22646 121.8 4.58377C121.03 3.93423 120.066 3.55798 119.06 3.51377C119.56 3.14377 119.4 1.79377 119.06 0.873771C117.582 2.39293 115.684 3.43733 113.61 3.87377C114.651 3.84956 115.688 3.73918 116.71 3.54377C117.71 3.31377 118.07 3.75377 117.71 4.19377L107.23 4.19377L107.23 3.63377C107.242 3.52868 107.232 3.42221 107.2 3.32134C107.168 3.22047 107.115 3.12748 107.045 3.04848C106.975 2.96949 106.888 2.90626 106.792 2.86298C106.695 2.81969 106.591 2.79731 106.485 2.79731C106.379 2.79731 106.275 2.81969 106.178 2.86298C106.082 2.90626 105.995 2.96949 105.925 3.04848C105.855 3.12748 105.802 3.22047 105.77 3.32134C105.738 3.42221 105.728 3.52868 105.74 3.63377L105.74 4.19377L86.54 4.19377C87.3703 4.05112 88.1386 3.66206 88.7449 3.07713C89.3512 2.49219 89.7676 1.73843 89.94 0.913765Z" fill="#B0B5AE"/>
</g>
<defs>
<clipPath id="clip0_30_886">
<rect width="8.01" height="121.64" fill="white" transform="translate(0.179993 8.57373) rotate(-90)"/>
</clipPath>
</defs>
</svg>
