<svg width="122" height="9" viewBox="0 0 122 9" fill="none" xmlns="http://www.w3.org/2000/svg">
<path d="M89.94 0.688668C88.78 -0.151332 88.12 0.688673 87.47 1.56867C86.7781 2.5145 85.921 3.32756 84.94 3.96867L37.05 3.96868C36.0711 3.32501 35.2144 2.51236 34.52 1.56867C33.88 0.668675 33.22 -0.15133 32.06 0.68867C32.2265 1.50764 32.6347 2.25789 33.2319 2.84256C33.829 3.42724 34.5877 3.81949 35.41 3.96868L16.23 3.96868L16.23 3.40867C16.23 3.20976 16.151 3.019 16.0103 2.87835C15.8697 2.73769 15.6789 2.65867 15.48 2.65867C15.2811 2.65867 15.0903 2.73769 14.9497 2.87835C14.809 3.019 14.73 3.20976 14.73 3.40867L14.73 3.96868L4.28001 3.96868C3.91001 3.52868 4.28001 3.08868 5.28001 3.31868C6.30585 3.51395 7.34604 3.62433 8.39001 3.64868C6.3121 3.2141 4.41105 2.16956 2.93001 0.648678C2.60001 1.56868 2.44001 2.91868 2.93001 3.28868C1.92655 3.33282 0.966222 3.70921 0.200012 4.35868C0.969478 5.00127 1.92852 5.37364 2.93001 5.41867C2.44001 5.78867 2.60001 7.13867 2.93001 8.05867C4.41105 6.53779 6.3121 5.49326 8.39001 5.05867C7.34593 5.08874 6.30593 5.20245 5.28001 5.39868C4.28001 5.61868 3.93001 5.17867 4.28001 4.73867L14.72 4.73867L14.72 5.29867C14.72 5.49758 14.799 5.68835 14.9397 5.82901C15.0803 5.96966 15.2711 6.04867 15.47 6.04867C15.6689 6.04867 15.8597 5.96966 16.0003 5.82901C16.141 5.68835 16.22 5.49758 16.22 5.29867L16.22 4.73867L35.42 4.73867C34.5959 4.88604 33.835 5.27749 33.2359 5.8623C32.6369 6.44711 32.2272 7.19834 32.06 8.01867C33.22 8.85867 33.88 8.01867 34.52 7.13867C35.2144 6.19499 36.0711 5.38234 37.05 4.73867L84.94 4.73867C85.921 5.37978 86.7781 6.19284 87.47 7.13867C88.12 8.04867 88.78 8.85867 89.94 8.01867C89.7703 7.19949 89.3598 6.44965 88.7612 5.86527C88.1626 5.28088 87.4031 4.88859 86.58 4.73867L105.78 4.73867L105.78 5.29867C105.768 5.40375 105.778 5.51023 105.81 5.6111C105.842 5.71197 105.895 5.80496 105.965 5.88396C106.035 5.96295 106.122 6.02617 106.218 6.06946C106.315 6.11275 106.419 6.13513 106.525 6.13513C106.631 6.13513 106.735 6.11275 106.832 6.06946C106.928 6.02617 107.015 5.96295 107.085 5.88396C107.155 5.80496 107.208 5.71197 107.24 5.6111C107.272 5.51023 107.282 5.40375 107.27 5.29867L107.27 4.73867L117.71 4.73867C118.09 5.17867 117.71 5.61867 116.71 5.39867C115.688 5.20216 114.651 5.08846 113.61 5.05867C115.684 5.49511 117.582 6.53951 119.06 8.05867C119.4 7.13867 119.56 5.78867 119.06 5.41867C120.064 5.37361 121.027 5.00137 121.8 4.35867C121.03 3.70913 120.066 3.33288 119.06 3.28867C119.56 2.91867 119.4 1.56867 119.06 0.648673C117.582 2.16783 115.684 3.21223 113.61 3.64867C114.651 3.62446 115.688 3.51408 116.71 3.31867C117.71 3.08867 118.07 3.52867 117.71 3.96867L107.23 3.96867L107.23 3.40867C107.242 3.30359 107.232 3.19712 107.2 3.09624C107.168 2.99537 107.115 2.90238 107.045 2.82339C106.975 2.74439 106.888 2.68117 106.792 2.63788C106.695 2.59459 106.591 2.57221 106.485 2.57221C106.379 2.57221 106.275 2.59459 106.178 2.63788C106.082 2.68117 105.995 2.74439 105.925 2.82339C105.855 2.90238 105.802 2.99537 105.77 3.09624C105.738 3.19712 105.728 3.30359 105.74 3.40867L105.74 3.96867L86.54 3.96867C87.3703 3.82602 88.1386 3.43696 88.7449 2.85203C89.3512 2.2671 89.7676 1.51333 89.94 0.688668Z" fill="#73836A"/>
</svg>
