<!DOCTYPE svg PUBLIC "-//W3C//DTD SVG 1.1//EN" "http://www.w3.org/Graphics/SVG/1.1/DTD/svg11.dtd">

<!-- Uploaded to: SVG Repo, www.svgrepo.com, Transformed by: SVG Repo Mixer Tools -->
<svg fill="#73836A" height="800px" width="800px" version="1.1" id="Layer_1" xmlns="http://www.w3.org/2000/svg" xmlns:xlink="http://www.w3.org/1999/xlink" viewBox="0 0 511.999 511.999" xml:space="preserve" stroke="#73836A">

<g id="SVGRepo_bgCarrier" stroke-width="0"/>

<g id="SVGRepo_tracerCarrier" stroke-linecap="round" stroke-linejoin="round"/>

<g id="SVGRepo_iconCarrier"> <g> <g> <path d="M505.025,167.083c-0.092-0.095-0.169-0.197-0.262-0.29l-85.101-85.099c-0.007-0.007-0.015-0.015-0.024-0.024l-0.241-0.241 c-0.146-0.146-0.306-0.271-0.455-0.411c-0.346-0.327-0.69-0.652-1.056-0.955c-0.26-0.216-0.531-0.412-0.797-0.615 c-0.3-0.228-0.597-0.457-0.909-0.668c-0.319-0.217-0.648-0.415-0.976-0.614c-0.282-0.171-0.562-0.344-0.852-0.504 c-0.344-0.189-0.695-0.358-1.047-0.526c-0.299-0.143-0.597-0.288-0.903-0.418c-0.337-0.143-0.679-0.271-1.022-0.396 c-0.341-0.126-0.682-0.251-1.03-0.361c-0.312-0.098-0.627-0.18-0.942-0.263c-0.389-0.104-0.778-0.204-1.174-0.287 c-0.29-0.061-0.581-0.106-0.872-0.154c-0.418-0.069-0.838-0.136-1.263-0.182c-0.294-0.031-0.588-0.047-0.884-0.067 c-0.415-0.028-0.828-0.055-1.248-0.059c-0.346-0.004-0.689,0.013-1.035,0.025c-0.364,0.013-0.726,0.021-1.093,0.052 c-0.448,0.038-0.891,0.103-1.336,0.169c-0.223,0.033-0.443,0.044-0.667,0.084l-59.44,10.562c-0.018,0.003-0.035,0.006-0.053,0.009 c-2.297,0.414-3.125,3.303-1.474,4.954L496.128,248.06c1.65,1.65,4.539,0.823,4.954-1.474c0.003-0.018,0.006-0.036,0.009-0.053 l10.562-59.44C513.013,179.451,510.275,172.04,505.025,167.083z"/> </g> </g> <g> <g> <path d="M457.064,271.716L315.216,129.864c-1.507-1.506-4.067-0.958-4.824,1.035l-15.624,41.176 c-0.922-0.167-1.857-0.291-2.784-0.442c-4.88-30.23-19.056-58.096-41.133-80.172c-27.754-27.754-64.655-43.039-103.906-43.039 S70.793,63.708,43.039,91.461C15.285,119.215,0,156.116,0,195.367c0,39.25,15.285,76.152,43.039,103.906 c22.068,22.068,49.919,36.241,80.136,41.127c4.886,30.215,19.059,58.068,41.127,80.136 c28.741,28.743,67.294,44.112,108.106,42.981c35.628-0.988,69.87-15.037,95.937-39.343 c37.486-34.955,52.415-84.657,44.803-131.364l42.881-16.271C458.022,275.784,458.571,273.224,457.064,271.716z M122.823,295.104 c-18.181-4.361-34.866-13.638-48.422-27.194c-19.379-19.377-30.05-45.141-30.05-72.543c0-27.404,10.671-53.167,30.048-72.545 c19.377-19.377,45.141-30.048,72.545-30.048s53.166,10.671,72.545,30.048c13.555,13.555,22.832,30.242,27.194,48.422 c-31.08,4.536-59.767,18.867-82.379,41.481C141.691,235.339,127.358,264.024,122.823,295.104z M195.665,244.086 c14.383-14.383,32.288-23.956,51.767-27.943c-3.986,19.479-13.56,37.384-27.943,51.767 c-14.383,14.383-32.288,23.956-51.767,27.943C171.708,276.374,181.282,258.47,195.665,244.086z M340.753,389.176 c-19.377,19.377-45.141,30.048-72.545,30.048c-27.403,0-53.167-10.671-72.545-30.048c-13.555-13.555-22.832-30.242-27.194-48.422 c31.08-4.536,59.767-18.867,82.379-41.481c22.613-22.612,36.946-51.299,41.481-82.379c18.181,4.361,34.866,13.638,48.422,27.194 C380.754,284.087,380.754,349.173,340.753,389.176z"/> </g> </g> </g>

</svg>